<?xml version="1.0" encoding="utf-8" ?>
<svg baseProfile="full" height="1153" version="1.1" viewBox="0 0 1174 1153" width="1174" xmlns="http://www.w3.org/2000/svg" xmlns:ev="http://www.w3.org/2001/xml-events" xmlns:xlink="http://www.w3.org/1999/xlink"><defs /><path d="M 416.00,0.00 415.00,1.00 410.00,1.00 409.00,2.00 406.00,2.00 405.00,3.00 402.00,3.00 401.00,4.00 398.00,4.00 397.00,5.00 396.00,5.00 395.00,6.00 393.00,6.00 392.00,7.00 391.00,7.00 390.00,8.00 386.00,8.00 384.00,10.00 383.00,10.00 382.00,11.00 380.00,11.00 377.00,14.00 376.00,14.00 374.00,16.00 373.00,16.00 371.00,18.00 370.00,18.00 367.00,21.00 366.00,21.00 361.00,26.00 360.00,26.00 354.00,32.00 354.00,33.00 349.00,38.00 349.00,39.00 346.00,42.00 346.00,43.00 345.00,44.00 345.00,45.00 343.00,47.00 343.00,48.00 342.00,49.00 342.00,50.00 341.00,51.00 341.00,52.00 340.00,53.00 340.00,54.00 339.00,55.00 339.00,56.00 338.00,57.00 338.00,58.00 337.00,59.00 337.00,60.00 336.00,61.00 336.00,62.00 335.00,63.00 335.00,65.00 334.00,66.00 334.00,68.00 333.00,69.00 333.00,71.00 332.00,72.00 332.00,75.00 331.00,76.00 331.00,77.00 330.00,78.00 330.00,82.00 329.00,83.00 329.00,87.00 328.00,88.00 328.00,92.00 327.00,93.00 327.00,110.00 326.00,111.00 326.00,145.00 327.00,146.00 327.00,165.00 328.00,166.00 328.00,172.00 329.00,173.00 329.00,178.00 330.00,179.00 330.00,183.00 331.00,184.00 331.00,188.00 332.00,189.00 332.00,193.00 333.00,194.00 333.00,197.00 334.00,198.00 334.00,200.00 335.00,201.00 335.00,205.00 336.00,206.00 336.00,208.00 337.00,209.00 337.00,212.00 338.00,213.00 338.00,215.00 339.00,216.00 339.00,218.00 340.00,219.00 340.00,221.00 341.00,222.00 341.00,225.00 342.00,226.00 342.00,228.00 343.00,229.00 343.00,231.00 344.00,232.00 344.00,236.00 345.00,237.00 345.00,238.00 346.00,239.00 346.00,241.00 347.00,242.00 347.00,244.00 348.00,245.00 348.00,246.00 349.00,247.00 349.00,249.00 350.00,250.00 350.00,251.00 351.00,252.00 351.00,253.00 352.00,254.00 352.00,256.00 353.00,257.00 353.00,258.00 354.00,259.00 354.00,260.00 355.00,261.00 355.00,263.00 356.00,264.00 356.00,265.00 357.00,266.00 357.00,267.00 358.00,268.00 358.00,269.00 359.00,270.00 359.00,271.00 360.00,272.00 360.00,273.00 361.00,274.00 361.00,276.00 362.00,277.00 362.00,279.00 363.00,280.00 363.00,281.00 364.00,282.00 364.00,283.00 366.00,285.00 366.00,286.00 367.00,287.00 367.00,288.00 368.00,289.00 368.00,290.00 369.00,291.00 369.00,292.00 370.00,293.00 370.00,294.00 371.00,295.00 371.00,296.00 372.00,297.00 372.00,298.00 373.00,299.00 373.00,300.00 374.00,301.00 374.00,302.00 377.00,305.00 377.00,306.00 378.00,307.00 378.00,308.00 379.00,309.00 379.00,312.00 381.00,314.00 381.00,315.00 383.00,317.00 383.00,319.00 384.00,319.00 385.00,320.00 385.00,321.00 386.00,322.00 386.00,323.00 388.00,325.00 388.00,326.00 389.00,327.00 389.00,328.00 391.00,330.00 391.00,331.00 393.00,333.00 393.00,334.00 394.00,335.00 394.00,336.00 396.00,338.00 396.00,339.00 397.00,340.00 397.00,341.00 399.00,343.00 399.00,344.00 401.00,346.00 401.00,347.00 403.00,349.00 403.00,350.00 405.00,352.00 405.00,353.00 409.00,357.00 409.00,358.00 411.00,360.00 411.00,361.00 413.00,363.00 413.00,364.00 414.00,365.00 414.00,366.00 416.00,368.00 416.00,369.00 419.00,372.00 419.00,373.00 422.00,376.00 422.00,377.00 425.00,380.00 425.00,381.00 428.00,384.00 428.00,385.00 431.00,388.00 431.00,389.00 433.00,391.00 433.00,392.00 436.00,395.00 436.00,396.00 439.00,399.00 439.00,400.00 443.00,404.00 443.00,405.00 444.00,406.00 445.00,406.00 446.00,407.00 446.00,408.00 448.00,410.00 448.00,411.00 449.00,412.00 449.00,413.00 453.00,417.00 453.00,418.00 462.00,427.00 462.00,428.00 466.00,432.00 466.00,434.00 470.00,438.00 470.00,439.00 471.00,439.00 475.00,443.00 475.00,444.00 481.00,450.00 481.00,451.00 484.00,454.00 484.00,455.00 485.00,456.00 485.00,457.00 484.00,458.00 482.00,456.00 482.00,455.00 474.00,447.00 473.00,447.00 468.00,442.00 467.00,442.00 464.00,439.00 464.00,438.00 463.00,437.00 462.00,437.00 452.00,427.00 451.00,427.00 449.00,425.00 448.00,425.00 446.00,423.00 446.00,422.00 444.00,420.00 443.00,420.00 436.00,413.00 435.00,413.00 429.00,407.00 428.00,407.00 422.00,401.00 421.00,401.00 416.00,396.00 415.00,396.00 410.00,391.00 409.00,391.00 405.00,387.00 404.00,387.00 400.00,383.00 399.00,383.00 391.00,375.00 390.00,375.00 389.00,374.00 388.00,374.00 387.00,373.00 386.00,373.00 383.00,370.00 382.00,370.00 375.00,363.00 374.00,363.00 371.00,360.00 370.00,360.00 368.00,358.00 367.00,358.00 364.00,355.00 362.00,355.00 358.00,351.00 357.00,351.00 355.00,349.00 354.00,349.00 351.00,346.00 350.00,346.00 348.00,344.00 347.00,344.00 345.00,342.00 344.00,342.00 342.00,340.00 341.00,340.00 339.00,338.00 338.00,338.00 337.00,337.00 336.00,337.00 334.00,335.00 333.00,335.00 332.00,334.00 331.00,334.00 329.00,332.00 328.00,332.00 324.00,328.00 323.00,328.00 322.00,327.00 321.00,327.00 319.00,325.00 318.00,325.00 317.00,324.00 316.00,324.00 314.00,322.00 313.00,322.00 312.00,321.00 311.00,321.00 310.00,320.00 309.00,321.00 308.00,320.00 308.00,319.00 307.00,319.00 306.00,318.00 305.00,318.00 304.00,317.00 303.00,317.00 301.00,315.00 300.00,315.00 299.00,314.00 298.00,314.00 297.00,313.00 296.00,313.00 295.00,312.00 294.00,312.00 293.00,311.00 292.00,311.00 290.00,309.00 289.00,309.00 288.00,308.00 287.00,308.00 286.00,307.00 285.00,307.00 284.00,306.00 283.00,306.00 282.00,305.00 281.00,305.00 280.00,304.00 279.00,304.00 278.00,303.00 275.00,303.00 273.00,301.00 272.00,301.00 271.00,300.00 270.00,300.00 269.00,299.00 267.00,299.00 266.00,298.00 265.00,298.00 264.00,297.00 263.00,297.00 262.00,296.00 260.00,296.00 259.00,295.00 258.00,295.00 256.00,293.00 254.00,293.00 253.00,292.00 252.00,292.00 251.00,291.00 249.00,291.00 248.00,290.00 246.00,290.00 245.00,289.00 244.00,289.00 243.00,288.00 241.00,288.00 240.00,287.00 238.00,287.00 237.00,286.00 233.00,286.00 232.00,285.00 230.00,285.00 229.00,284.00 226.00,284.00 225.00,283.00 223.00,283.00 222.00,282.00 221.00,282.00 220.00,281.00 217.00,281.00 216.00,280.00 213.00,280.00 212.00,279.00 209.00,279.00 208.00,278.00 205.00,278.00 204.00,277.00 200.00,277.00 199.00,276.00 195.00,276.00 194.00,275.00 189.00,275.00 188.00,274.00 183.00,274.00 182.00,273.00 174.00,273.00 173.00,272.00 135.00,272.00 134.00,273.00 127.00,273.00 126.00,274.00 121.00,274.00 120.00,275.00 117.00,275.00 116.00,276.00 113.00,276.00 112.00,277.00 109.00,277.00 108.00,278.00 106.00,278.00 105.00,279.00 103.00,279.00 102.00,280.00 101.00,280.00 100.00,281.00 99.00,281.00 98.00,282.00 96.00,282.00 95.00,283.00 94.00,283.00 93.00,284.00 92.00,284.00 91.00,285.00 90.00,285.00 89.00,286.00 86.00,286.00 84.00,288.00 83.00,288.00 82.00,289.00 81.00,289.00 79.00,291.00 78.00,291.00 76.00,293.00 75.00,293.00 72.00,296.00 71.00,296.00 64.00,303.00 63.00,303.00 56.00,310.00 56.00,311.00 52.00,315.00 52.00,316.00 50.00,318.00 50.00,319.00 49.00,320.00 49.00,321.00 47.00,323.00 47.00,324.00 45.00,326.00 45.00,327.00 44.00,328.00 44.00,329.00 43.00,330.00 43.00,331.00 42.00,332.00 42.00,333.00 41.00,334.00 41.00,335.00 40.00,336.00 40.00,337.00 38.00,339.00 38.00,341.00 37.00,342.00 37.00,343.00 36.00,344.00 36.00,346.00 35.00,347.00 35.00,349.00 34.00,350.00 34.00,352.00 33.00,353.00 33.00,355.00 32.00,356.00 32.00,362.00 31.00,363.00 31.00,367.00 30.00,368.00 30.00,372.00 29.00,373.00 29.00,379.00 28.00,380.00 28.00,390.00 27.00,391.00 27.00,414.00 28.00,415.00 28.00,423.00 29.00,424.00 29.00,429.00 30.00,430.00 30.00,434.00 31.00,435.00 31.00,438.00 32.00,439.00 32.00,445.00 33.00,446.00 33.00,449.00 34.00,450.00 34.00,452.00 35.00,453.00 35.00,455.00 36.00,456.00 36.00,458.00 37.00,459.00 37.00,460.00 38.00,461.00 38.00,463.00 39.00,464.00 39.00,466.00 40.00,467.00 40.00,469.00 41.00,470.00 41.00,472.00 42.00,473.00 42.00,474.00 43.00,475.00 43.00,477.00 44.00,478.00 44.00,479.00 45.00,480.00 45.00,482.00 46.00,483.00 46.00,485.00 47.00,486.00 47.00,488.00 48.00,489.00 48.00,491.00 49.00,492.00 49.00,495.00 50.00,496.00 50.00,499.00 51.00,500.00 51.00,502.00 52.00,503.00 52.00,506.00 53.00,507.00 53.00,509.00 54.00,510.00 54.00,512.00 55.00,513.00 55.00,517.00 56.00,518.00 56.00,523.00 57.00,524.00 57.00,533.00 58.00,534.00 58.00,536.00 57.00,537.00 57.00,544.00 56.00,545.00 56.00,548.00 55.00,549.00 55.00,552.00 54.00,553.00 54.00,555.00 53.00,556.00 53.00,558.00 52.00,559.00 52.00,561.00 51.00,562.00 51.00,564.00 50.00,565.00 50.00,567.00 49.00,568.00 49.00,570.00 48.00,571.00 48.00,573.00 47.00,574.00 47.00,575.00 46.00,576.00 46.00,577.00 45.00,578.00 45.00,579.00 44.00,580.00 44.00,581.00 43.00,582.00 43.00,583.00 42.00,584.00 42.00,585.00 41.00,586.00 41.00,587.00 40.00,588.00 40.00,589.00 39.00,590.00 39.00,591.00 38.00,592.00 38.00,593.00 37.00,594.00 37.00,595.00 36.00,596.00 36.00,597.00 34.00,599.00 34.00,600.00 33.00,601.00 33.00,602.00 32.00,603.00 32.00,606.00 31.00,607.00 31.00,608.00 30.00,609.00 30.00,610.00 29.00,611.00 29.00,612.00 28.00,613.00 28.00,614.00 26.00,616.00 26.00,617.00 25.00,618.00 25.00,619.00 24.00,620.00 24.00,622.00 23.00,623.00 23.00,624.00 22.00,625.00 22.00,626.00 21.00,627.00 21.00,628.00 20.00,629.00 20.00,630.00 19.00,631.00 19.00,632.00 18.00,633.00 18.00,634.00 17.00,635.00 17.00,637.00 16.00,638.00 16.00,639.00 15.00,640.00 15.00,641.00 14.00,642.00 14.00,646.00 13.00,647.00 13.00,649.00 11.00,651.00 11.00,653.00 10.00,654.00 10.00,656.00 9.00,657.00 9.00,659.00 8.00,660.00 8.00,662.00 7.00,663.00 7.00,666.00 6.00,667.00 6.00,668.00 5.00,669.00 5.00,672.00 4.00,673.00 4.00,676.00 3.00,677.00 3.00,681.00 2.00,682.00 2.00,686.00 1.00,687.00 1.00,695.00 0.00,696.00 0.00,718.00 1.00,719.00 1.00,726.00 2.00,727.00 2.00,731.00 3.00,732.00 3.00,735.00 4.00,736.00 4.00,738.00 5.00,739.00 5.00,742.00 6.00,743.00 6.00,745.00 7.00,746.00 7.00,747.00 8.00,748.00 8.00,750.00 9.00,751.00 9.00,752.00 10.00,753.00 10.00,754.00 11.00,755.00 11.00,756.00 12.00,757.00 12.00,758.00 13.00,759.00 13.00,760.00 14.00,761.00 14.00,762.00 15.00,763.00 15.00,766.00 17.00,768.00 17.00,769.00 20.00,772.00 20.00,773.00 23.00,776.00 23.00,777.00 29.00,783.00 29.00,784.00 32.00,787.00 33.00,787.00 41.00,795.00 42.00,795.00 46.00,799.00 47.00,799.00 52.00,804.00 54.00,804.00 55.00,805.00 56.00,805.00 57.00,806.00 58.00,806.00 59.00,807.00 60.00,807.00 61.00,808.00 62.00,808.00 63.00,809.00 64.00,809.00 65.00,810.00 66.00,810.00 67.00,811.00 68.00,811.00 69.00,812.00 70.00,812.00 71.00,813.00 73.00,813.00 74.00,814.00 75.00,814.00 76.00,815.00 78.00,815.00 79.00,816.00 81.00,816.00 82.00,817.00 83.00,817.00 84.00,818.00 87.00,818.00 88.00,819.00 90.00,819.00 91.00,820.00 94.00,820.00 95.00,821.00 98.00,821.00 99.00,822.00 103.00,822.00 104.00,823.00 105.00,823.00 106.00,822.00 107.00,823.00 114.00,823.00 115.00,824.00 123.00,824.00 124.00,825.00 161.00,825.00 162.00,824.00 171.00,824.00 172.00,823.00 180.00,823.00 181.00,822.00 182.00,822.00 183.00,823.00 184.00,823.00 185.00,822.00 189.00,822.00 190.00,821.00 195.00,821.00 196.00,820.00 199.00,820.00 200.00,819.00 203.00,819.00 204.00,818.00 207.00,818.00 208.00,817.00 211.00,817.00 212.00,816.00 215.00,816.00 216.00,815.00 218.00,815.00 219.00,814.00 221.00,814.00 222.00,813.00 224.00,813.00 225.00,812.00 228.00,812.00 229.00,811.00 231.00,811.00 232.00,810.00 234.00,810.00 235.00,809.00 237.00,809.00 238.00,808.00 239.00,808.00 240.00,807.00 242.00,807.00 243.00,806.00 245.00,806.00 246.00,805.00 249.00,805.00 250.00,804.00 253.00,804.00 254.00,803.00 255.00,803.00 256.00,802.00 257.00,802.00 258.00,801.00 260.00,801.00 261.00,800.00 263.00,800.00 264.00,799.00 265.00,799.00 266.00,798.00 267.00,798.00 268.00,797.00 270.00,797.00 271.00,796.00 272.00,796.00 273.00,795.00 274.00,795.00 275.00,794.00 276.00,794.00 277.00,793.00 278.00,793.00 279.00,792.00 281.00,792.00 282.00,791.00 283.00,791.00 284.00,790.00 285.00,790.00 286.00,789.00 287.00,789.00 288.00,788.00 290.00,788.00 291.00,787.00 293.00,787.00 294.00,786.00 295.00,786.00 296.00,785.00 297.00,785.00 298.00,784.00 299.00,784.00 300.00,783.00 301.00,783.00 302.00,782.00 303.00,782.00 304.00,781.00 305.00,781.00 306.00,780.00 307.00,780.00 309.00,778.00 310.00,778.00 311.00,777.00 312.00,777.00 313.00,776.00 314.00,776.00 315.00,775.00 316.00,775.00 317.00,774.00 318.00,774.00 319.00,773.00 320.00,773.00 321.00,772.00 322.00,772.00 323.00,771.00 324.00,771.00 325.00,770.00 326.00,770.00 327.00,769.00 328.00,769.00 329.00,768.00 330.00,768.00 331.00,767.00 332.00,767.00 333.00,766.00 334.00,766.00 336.00,764.00 337.00,764.00 338.00,763.00 339.00,763.00 340.00,762.00 341.00,762.00 342.00,761.00 343.00,761.00 343.00,760.00 344.00,759.00 345.00,759.00 346.00,758.00 347.00,758.00 348.00,757.00 349.00,757.00 351.00,755.00 352.00,755.00 353.00,754.00 354.00,754.00 355.00,753.00 357.00,753.00 359.00,751.00 360.00,751.00 362.00,749.00 363.00,749.00 365.00,747.00 366.00,747.00 367.00,746.00 368.00,746.00 370.00,744.00 371.00,744.00 372.00,743.00 373.00,743.00 375.00,741.00 376.00,741.00 379.00,738.00 380.00,738.00 382.00,736.00 384.00,736.00 385.00,735.00 386.00,735.00 388.00,733.00 389.00,733.00 390.00,732.00 391.00,732.00 395.00,728.00 396.00,728.00 398.00,726.00 399.00,726.00 401.00,724.00 402.00,724.00 404.00,722.00 405.00,722.00 407.00,720.00 408.00,720.00 410.00,718.00 411.00,718.00 412.00,717.00 413.00,717.00 415.00,715.00 416.00,715.00 418.00,713.00 419.00,713.00 422.00,710.00 423.00,710.00 425.00,708.00 426.00,708.00 428.00,706.00 429.00,706.00 430.00,705.00 430.00,704.00 431.00,703.00 432.00,703.00 434.00,701.00 436.00,701.00 437.00,700.00 438.00,700.00 441.00,697.00 442.00,697.00 444.00,695.00 445.00,695.00 450.00,690.00 451.00,690.00 454.00,687.00 455.00,687.00 458.00,684.00 459.00,684.00 460.00,683.00 462.00,683.00 463.00,682.00 463.00,681.00 464.00,680.00 465.00,680.00 468.00,677.00 469.00,677.00 472.00,674.00 473.00,674.00 476.00,671.00 477.00,671.00 480.00,668.00 481.00,668.00 481.00,667.00 482.00,666.00 484.00,666.00 487.00,663.00 488.00,663.00 491.00,660.00 492.00,660.00 495.00,657.00 496.00,657.00 502.00,651.00 503.00,651.00 505.00,649.00 507.00,649.00 510.00,646.00 511.00,646.00 514.00,643.00 515.00,643.00 515.00,642.00 517.00,640.00 518.00,640.00 519.00,639.00 520.00,640.00 520.00,641.00 519.00,642.00 519.00,643.00 518.00,644.00 518.00,646.00 516.00,648.00 516.00,649.00 515.00,650.00 514.00,650.00 514.00,651.00 512.00,653.00 512.00,654.00 510.00,656.00 510.00,657.00 508.00,659.00 508.00,660.00 506.00,662.00 506.00,663.00 503.00,666.00 503.00,667.00 501.00,669.00 501.00,670.00 499.00,672.00 499.00,673.00 497.00,675.00 497.00,676.00 494.00,679.00 494.00,680.00 491.00,683.00 491.00,684.00 488.00,687.00 487.00,687.00 487.00,688.00 485.00,690.00 485.00,691.00 483.00,693.00 483.00,694.00 481.00,696.00 481.00,697.00 478.00,700.00 478.00,701.00 476.00,703.00 475.00,703.00 474.00,704.00 474.00,705.00 470.00,709.00 470.00,710.00 466.00,714.00 466.00,716.00 458.00,724.00 458.00,725.00 453.00,730.00 453.00,731.00 449.00,735.00 449.00,736.00 445.00,740.00 445.00,741.00 440.00,746.00 440.00,747.00 436.00,751.00 436.00,752.00 431.00,757.00 431.00,758.00 428.00,761.00 428.00,762.00 424.00,766.00 424.00,767.00 418.00,773.00 418.00,774.00 414.00,778.00 414.00,779.00 413.00,780.00 413.00,781.00 410.00,784.00 410.00,785.00 403.00,792.00 403.00,793.00 400.00,796.00 400.00,797.00 397.00,800.00 397.00,801.00 396.00,802.00 396.00,803.00 395.00,804.00 395.00,805.00 393.00,807.00 392.00,807.00 392.00,808.00 390.00,810.00 390.00,811.00 387.00,814.00 387.00,815.00 385.00,817.00 385.00,818.00 383.00,820.00 383.00,821.00 380.00,824.00 380.00,825.00 379.00,826.00 379.00,827.00 377.00,829.00 377.00,830.00 375.00,832.00 375.00,833.00 373.00,835.00 373.00,836.00 371.00,838.00 371.00,839.00 370.00,840.00 370.00,841.00 366.00,845.00 366.00,846.00 365.00,847.00 365.00,848.00 363.00,850.00 363.00,851.00 362.00,852.00 362.00,853.00 361.00,854.00 361.00,856.00 358.00,859.00 358.00,860.00 357.00,861.00 357.00,862.00 356.00,863.00 356.00,864.00 354.00,866.00 354.00,867.00 353.00,868.00 353.00,869.00 352.00,870.00 352.00,871.00 351.00,872.00 351.00,873.00 350.00,874.00 350.00,875.00 348.00,877.00 348.00,878.00 346.00,880.00 346.00,882.00 344.00,884.00 344.00,888.00 343.00,889.00 343.00,890.00 342.00,891.00 342.00,892.00 340.00,894.00 340.00,895.00 339.00,896.00 339.00,898.00 338.00,899.00 338.00,900.00 337.00,901.00 337.00,902.00 336.00,903.00 336.00,905.00 335.00,906.00 335.00,907.00 334.00,908.00 334.00,910.00 333.00,911.00 333.00,912.00 332.00,913.00 332.00,914.00 331.00,915.00 331.00,916.00 330.00,917.00 330.00,919.00 329.00,920.00 329.00,922.00 328.00,923.00 328.00,925.00 327.00,926.00 327.00,930.00 326.00,931.00 326.00,933.00 325.00,934.00 325.00,937.00 324.00,938.00 324.00,941.00 323.00,942.00 323.00,944.00 322.00,945.00 322.00,947.00 321.00,948.00 321.00,952.00 320.00,953.00 320.00,956.00 319.00,957.00 319.00,961.00 318.00,962.00 318.00,966.00 317.00,967.00 317.00,972.00 316.00,973.00 316.00,979.00 315.00,980.00 315.00,989.00 314.00,990.00 314.00,1031.00 315.00,1032.00 315.00,1040.00 316.00,1041.00 316.00,1047.00 317.00,1048.00 317.00,1054.00 318.00,1055.00 318.00,1059.00 319.00,1060.00 319.00,1063.00 320.00,1064.00 320.00,1066.00 321.00,1067.00 321.00,1069.00 322.00,1070.00 322.00,1072.00 323.00,1073.00 323.00,1075.00 324.00,1076.00 324.00,1078.00 325.00,1079.00 325.00,1080.00 326.00,1081.00 326.00,1082.00 327.00,1083.00 327.00,1086.00 328.00,1087.00 328.00,1088.00 329.00,1089.00 329.00,1090.00 331.00,1092.00 331.00,1093.00 332.00,1094.00 332.00,1095.00 334.00,1097.00 334.00,1098.00 339.00,1103.00 339.00,1104.00 344.00,1109.00 344.00,1110.00 346.00,1112.00 346.00,1113.00 349.00,1116.00 350.00,1116.00 352.00,1118.00 353.00,1118.00 357.00,1122.00 358.00,1122.00 364.00,1128.00 365.00,1128.00 366.00,1129.00 367.00,1129.00 369.00,1131.00 370.00,1131.00 371.00,1132.00 372.00,1132.00 374.00,1134.00 376.00,1134.00 377.00,1135.00 378.00,1135.00 379.00,1136.00 381.00,1136.00 382.00,1137.00 383.00,1137.00 384.00,1138.00 385.00,1138.00 386.00,1139.00 388.00,1139.00 389.00,1140.00 390.00,1140.00 391.00,1141.00 393.00,1141.00 394.00,1142.00 395.00,1142.00 396.00,1143.00 398.00,1143.00 399.00,1144.00 402.00,1144.00 403.00,1145.00 406.00,1145.00 407.00,1146.00 410.00,1146.00 411.00,1147.00 415.00,1147.00 416.00,1148.00 421.00,1148.00 422.00,1149.00 430.00,1149.00 431.00,1150.00 461.00,1150.00 462.00,1149.00 470.00,1149.00 471.00,1148.00 476.00,1148.00 477.00,1147.00 480.00,1147.00 481.00,1146.00 483.00,1146.00 484.00,1145.00 487.00,1145.00 488.00,1144.00 490.00,1144.00 491.00,1143.00 493.00,1143.00 494.00,1142.00 495.00,1142.00 496.00,1141.00 498.00,1141.00 499.00,1140.00 500.00,1140.00 501.00,1139.00 502.00,1139.00 503.00,1138.00 504.00,1138.00 505.00,1137.00 507.00,1137.00 508.00,1136.00 509.00,1136.00 510.00,1135.00 513.00,1135.00 514.00,1134.00 515.00,1134.00 516.00,1133.00 517.00,1133.00 518.00,1132.00 519.00,1132.00 520.00,1131.00 521.00,1131.00 522.00,1130.00 524.00,1130.00 525.00,1129.00 526.00,1129.00 527.00,1128.00 528.00,1128.00 529.00,1127.00 530.00,1127.00 531.00,1126.00 532.00,1126.00 534.00,1124.00 536.00,1124.00 537.00,1123.00 538.00,1123.00 539.00,1122.00 540.00,1122.00 541.00,1121.00 543.00,1121.00 544.00,1120.00 545.00,1120.00 546.00,1119.00 548.00,1119.00 549.00,1118.00 550.00,1118.00 551.00,1117.00 555.00,1117.00 556.00,1116.00 558.00,1116.00 559.00,1115.00 561.00,1115.00 562.00,1114.00 564.00,1114.00 565.00,1113.00 568.00,1113.00 569.00,1112.00 572.00,1112.00 573.00,1111.00 578.00,1111.00 579.00,1110.00 600.00,1110.00 601.00,1111.00 605.00,1111.00 606.00,1112.00 610.00,1112.00 611.00,1113.00 614.00,1113.00 615.00,1114.00 618.00,1114.00 619.00,1115.00 622.00,1115.00 623.00,1116.00 624.00,1116.00 625.00,1117.00 628.00,1117.00 629.00,1118.00 630.00,1117.00 631.00,1118.00 633.00,1118.00 634.00,1119.00 636.00,1119.00 637.00,1120.00 638.00,1120.00 639.00,1121.00 641.00,1121.00 642.00,1122.00 644.00,1122.00 645.00,1123.00 647.00,1123.00 648.00,1124.00 649.00,1124.00 650.00,1125.00 652.00,1125.00 653.00,1126.00 655.00,1126.00 656.00,1127.00 657.00,1127.00 658.00,1128.00 659.00,1128.00 660.00,1129.00 662.00,1129.00 663.00,1130.00 664.00,1130.00 665.00,1131.00 667.00,1131.00 668.00,1132.00 670.00,1132.00 671.00,1133.00 672.00,1133.00 673.00,1134.00 675.00,1134.00 676.00,1135.00 680.00,1135.00 681.00,1136.00 682.00,1136.00 683.00,1137.00 685.00,1137.00 686.00,1138.00 688.00,1138.00 689.00,1139.00 690.00,1139.00 691.00,1140.00 693.00,1140.00 694.00,1141.00 696.00,1141.00 697.00,1142.00 699.00,1142.00 700.00,1143.00 702.00,1143.00 703.00,1144.00 706.00,1144.00 707.00,1145.00 708.00,1145.00 709.00,1146.00 712.00,1146.00 713.00,1147.00 716.00,1147.00 717.00,1148.00 720.00,1148.00 721.00,1149.00 725.00,1149.00 726.00,1150.00 729.00,1150.00 730.00,1151.00 735.00,1151.00 736.00,1152.00 777.00,1152.00 778.00,1151.00 782.00,1151.00 783.00,1150.00 786.00,1150.00 787.00,1149.00 790.00,1149.00 791.00,1148.00 793.00,1148.00 794.00,1147.00 795.00,1147.00 796.00,1146.00 797.00,1146.00 798.00,1145.00 800.00,1145.00 801.00,1144.00 802.00,1144.00 803.00,1143.00 804.00,1143.00 805.00,1142.00 806.00,1142.00 807.00,1141.00 808.00,1141.00 809.00,1140.00 810.00,1140.00 813.00,1137.00 814.00,1137.00 815.00,1136.00 816.00,1136.00 817.00,1135.00 819.00,1135.00 822.00,1132.00 823.00,1132.00 826.00,1129.00 827.00,1129.00 827.00,1128.00 828.00,1127.00 829.00,1127.00 829.00,1126.00 837.00,1118.00 838.00,1118.00 842.00,1114.00 842.00,1113.00 844.00,1111.00 844.00,1110.00 845.00,1109.00 845.00,1108.00 846.00,1107.00 846.00,1106.00 847.00,1105.00 847.00,1104.00 848.00,1103.00 848.00,1102.00 850.00,1100.00 850.00,1099.00 851.00,1098.00 851.00,1097.00 852.00,1096.00 852.00,1095.00 853.00,1094.00 853.00,1093.00 854.00,1092.00 854.00,1090.00 855.00,1089.00 855.00,1088.00 856.00,1087.00 856.00,1085.00 857.00,1084.00 857.00,1082.00 858.00,1081.00 858.00,1079.00 859.00,1078.00 859.00,1076.00 860.00,1075.00 860.00,1072.00 861.00,1071.00 861.00,1067.00 862.00,1066.00 862.00,1062.00 863.00,1061.00 863.00,1057.00 864.00,1056.00 864.00,1040.00 865.00,1039.00 865.00,1008.00 864.00,1007.00 864.00,991.00 863.00,990.00 864.00,989.00 864.00,986.00 863.00,985.00 863.00,978.00 862.00,977.00 862.00,972.00 861.00,971.00 861.00,966.00 860.00,965.00 860.00,961.00 859.00,960.00 859.00,956.00 858.00,955.00 858.00,952.00 857.00,951.00 857.00,947.00 856.00,946.00 856.00,944.00 855.00,943.00 855.00,940.00 854.00,939.00 854.00,937.00 853.00,936.00 853.00,933.00 852.00,932.00 852.00,930.00 851.00,929.00 851.00,927.00 850.00,926.00 850.00,924.00 849.00,923.00 849.00,921.00 848.00,920.00 848.00,918.00 847.00,917.00 847.00,915.00 846.00,914.00 846.00,910.00 845.00,909.00 845.00,908.00 844.00,907.00 844.00,905.00 843.00,904.00 843.00,902.00 842.00,901.00 842.00,900.00 841.00,899.00 841.00,897.00 840.00,896.00 840.00,895.00 839.00,894.00 839.00,893.00 838.00,892.00 838.00,891.00 837.00,890.00 837.00,889.00 836.00,888.00 836.00,887.00 835.00,886.00 835.00,884.00 834.00,883.00 834.00,882.00 833.00,881.00 833.00,880.00 832.00,879.00 832.00,878.00 831.00,877.00 831.00,876.00 829.00,874.00 829.00,871.00 828.00,870.00 828.00,869.00 827.00,868.00 827.00,867.00 826.00,866.00 826.00,865.00 825.00,864.00 825.00,863.00 824.00,862.00 824.00,861.00 823.00,860.00 823.00,859.00 821.00,857.00 821.00,856.00 820.00,855.00 820.00,854.00 818.00,852.00 818.00,851.00 817.00,850.00 817.00,849.00 816.00,848.00 816.00,847.00 814.00,845.00 814.00,844.00 813.00,843.00 813.00,842.00 812.00,841.00 812.00,840.00 811.00,839.00 811.00,838.00 809.00,836.00 809.00,835.00 808.00,834.00 808.00,833.00 806.00,831.00 806.00,830.00 804.00,828.00 804.00,827.00 803.00,826.00 803.00,825.00 799.00,821.00 799.00,820.00 797.00,818.00 797.00,817.00 795.00,815.00 795.00,814.00 794.00,813.00 794.00,812.00 793.00,811.00 793.00,810.00 792.00,809.00 792.00,808.00 791.00,807.00 790.00,807.00 789.00,806.00 789.00,805.00 787.00,803.00 787.00,802.00 784.00,799.00 784.00,798.00 782.00,796.00 782.00,795.00 779.00,792.00 779.00,791.00 777.00,789.00 777.00,788.00 774.00,785.00 774.00,784.00 771.00,781.00 771.00,780.00 768.00,777.00 768.00,776.00 761.00,769.00 761.00,768.00 759.00,766.00 759.00,765.00 758.00,764.00 758.00,763.00 755.00,760.00 755.00,759.00 747.00,751.00 747.00,750.00 743.00,746.00 743.00,745.00 742.00,744.00 742.00,743.00 738.00,739.00 738.00,738.00 737.00,738.00 736.00,737.00 736.00,736.00 731.00,731.00 731.00,730.00 727.00,726.00 727.00,725.00 724.00,722.00 724.00,721.00 719.00,716.00 719.00,715.00 715.00,711.00 715.00,710.00 711.00,706.00 711.00,705.00 707.00,701.00 707.00,700.00 704.00,697.00 704.00,696.00 701.00,693.00 701.00,692.00 697.00,688.00 697.00,687.00 690.00,680.00 690.00,679.00 691.00,678.00 697.00,684.00 698.00,684.00 709.00,695.00 709.00,697.00 710.00,698.00 711.00,698.00 712.00,699.00 712.00,700.00 713.00,700.00 727.00,714.00 727.00,715.00 744.00,732.00 744.00,733.00 757.00,746.00 757.00,747.00 761.00,751.00 761.00,752.00 762.00,753.00 763.00,753.00 765.00,755.00 765.00,756.00 773.00,764.00 773.00,765.00 779.00,771.00 779.00,772.00 785.00,778.00 785.00,779.00 791.00,785.00 791.00,786.00 793.00,788.00 794.00,788.00 795.00,789.00 795.00,790.00 796.00,791.00 796.00,792.00 800.00,796.00 800.00,797.00 804.00,801.00 804.00,802.00 812.00,810.00 812.00,811.00 813.00,812.00 813.00,813.00 815.00,815.00 815.00,816.00 819.00,820.00 819.00,821.00 825.00,827.00 825.00,828.00 828.00,831.00 828.00,832.00 830.00,834.00 830.00,835.00 831.00,836.00 831.00,837.00 836.00,842.00 836.00,843.00 838.00,845.00 838.00,846.00 841.00,849.00 841.00,850.00 843.00,852.00 843.00,853.00 846.00,856.00 846.00,857.00 848.00,859.00 848.00,860.00 849.00,861.00 849.00,862.00 852.00,865.00 852.00,866.00 854.00,868.00 854.00,869.00 856.00,871.00 856.00,872.00 860.00,876.00 860.00,877.00 862.00,879.00 862.00,880.00 864.00,882.00 864.00,883.00 865.00,884.00 865.00,886.00 867.00,888.00 867.00,889.00 868.00,890.00 868.00,891.00 872.00,895.00 872.00,896.00 874.00,898.00 874.00,899.00 875.00,900.00 875.00,901.00 877.00,903.00 877.00,904.00 879.00,906.00 879.00,907.00 880.00,908.00 880.00,909.00 881.00,909.00 882.00,910.00 882.00,913.00 884.00,915.00 884.00,916.00 885.00,917.00 885.00,918.00 887.00,920.00 887.00,921.00 888.00,922.00 888.00,923.00 891.00,926.00 891.00,927.00 893.00,929.00 893.00,930.00 894.00,931.00 894.00,932.00 896.00,934.00 896.00,935.00 897.00,936.00 897.00,937.00 898.00,938.00 898.00,939.00 900.00,941.00 900.00,943.00 901.00,944.00 901.00,945.00 903.00,947.00 903.00,948.00 904.00,949.00 904.00,950.00 905.00,951.00 905.00,952.00 907.00,954.00 907.00,955.00 908.00,956.00 908.00,957.00 909.00,958.00 909.00,959.00 912.00,962.00 912.00,963.00 913.00,964.00 913.00,965.00 914.00,966.00 914.00,967.00 915.00,968.00 915.00,969.00 917.00,971.00 917.00,973.00 918.00,974.00 918.00,976.00 920.00,978.00 920.00,979.00 922.00,981.00 922.00,982.00 923.00,983.00 923.00,984.00 924.00,985.00 924.00,986.00 925.00,987.00 925.00,988.00 926.00,989.00 926.00,990.00 927.00,991.00 927.00,992.00 929.00,994.00 929.00,995.00 931.00,997.00 931.00,998.00 932.00,999.00 932.00,1000.00 933.00,1001.00 933.00,1002.00 934.00,1003.00 934.00,1005.00 935.00,1006.00 935.00,1007.00 936.00,1008.00 936.00,1009.00 937.00,1010.00 937.00,1011.00 939.00,1013.00 939.00,1014.00 940.00,1015.00 940.00,1016.00 941.00,1017.00 941.00,1018.00 942.00,1019.00 942.00,1020.00 943.00,1021.00 943.00,1022.00 944.00,1023.00 944.00,1024.00 945.00,1025.00 945.00,1026.00 946.00,1027.00 946.00,1028.00 948.00,1030.00 948.00,1031.00 950.00,1033.00 950.00,1034.00 951.00,1035.00 951.00,1036.00 952.00,1037.00 952.00,1040.00 953.00,1041.00 953.00,1042.00 954.00,1043.00 954.00,1044.00 956.00,1046.00 956.00,1048.00 958.00,1050.00 958.00,1051.00 959.00,1052.00 959.00,1053.00 960.00,1054.00 960.00,1055.00 961.00,1056.00 961.00,1057.00 962.00,1058.00 962.00,1059.00 963.00,1060.00 963.00,1061.00 964.00,1062.00 964.00,1063.00 965.00,1064.00 965.00,1065.00 967.00,1067.00 967.00,1068.00 968.00,1069.00 968.00,1070.00 969.00,1071.00 969.00,1073.00 970.00,1074.00 970.00,1075.00 971.00,1076.00 971.00,1077.00 972.00,1078.00 972.00,1079.00 973.00,1080.00 973.00,1081.00 974.00,1082.00 974.00,1083.00 976.00,1085.00 976.00,1086.00 977.00,1087.00 977.00,1088.00 978.00,1089.00 978.00,1090.00 979.00,1091.00 979.00,1092.00 980.00,1093.00 980.00,1094.00 981.00,1095.00 981.00,1096.00 982.00,1097.00 982.00,1098.00 983.00,1099.00 983.00,1100.00 985.00,1102.00 985.00,1103.00 986.00,1104.00 986.00,1107.00 987.00,1108.00 987.00,1109.00 988.00,1110.00 988.00,1111.00 989.00,1112.00 989.00,1113.00 990.00,1114.00 990.00,1115.00 991.00,1116.00 991.00,1117.00 993.00,1119.00 993.00,1120.00 994.00,1121.00 994.00,1122.00 995.00,1123.00 995.00,1124.00 996.00,1125.00 996.00,1126.00 997.00,1127.00 997.00,1128.00 998.00,1128.00 999.00,1127.00 1000.00,1127.00 1004.00,1123.00 1005.00,1123.00 1009.00,1119.00 1010.00,1119.00 1012.00,1117.00 1013.00,1117.00 1019.00,1111.00 1019.00,1110.00 1035.00,1094.00 1035.00,1093.00 1037.00,1091.00 1037.00,1090.00 1039.00,1088.00 1039.00,1087.00 1049.00,1077.00 1049.00,1076.00 1054.00,1071.00 1054.00,1070.00 1055.00,1069.00 1055.00,1068.00 1057.00,1066.00 1058.00,1066.00 1061.00,1063.00 1061.00,1062.00 1060.00,1061.00 1060.00,1060.00 1058.00,1058.00 1058.00,1057.00 1056.00,1055.00 1056.00,1054.00 1055.00,1053.00 1055.00,1052.00 1054.00,1051.00 1054.00,1050.00 1052.00,1048.00 1052.00,1047.00 1050.00,1045.00 1050.00,1044.00 1048.00,1042.00 1048.00,1041.00 1047.00,1040.00 1047.00,1039.00 1045.00,1037.00 1045.00,1036.00 1043.00,1034.00 1043.00,1033.00 1039.00,1029.00 1039.00,1028.00 1037.00,1026.00 1037.00,1024.00 1036.00,1023.00 1036.00,1022.00 1035.00,1021.00 1035.00,1020.00 1033.00,1018.00 1033.00,1017.00 1029.00,1013.00 1029.00,1012.00 1027.00,1010.00 1027.00,1009.00 1025.00,1007.00 1025.00,1006.00 1023.00,1004.00 1023.00,1003.00 1021.00,1001.00 1021.00,1000.00 1019.00,998.00 1019.00,997.00 1017.00,995.00 1017.00,994.00 1015.00,992.00 1015.00,991.00 1013.00,989.00 1013.00,988.00 1011.00,986.00 1011.00,985.00 1008.00,982.00 1008.00,981.00 1004.00,977.00 1004.00,976.00 1002.00,974.00 1002.00,973.00 1001.00,972.00 1001.00,971.00 1000.00,970.00 1000.00,969.00 997.00,966.00 997.00,965.00 992.00,960.00 992.00,959.00 989.00,956.00 989.00,955.00 987.00,953.00 987.00,952.00 985.00,950.00 985.00,949.00 982.00,946.00 982.00,945.00 979.00,942.00 979.00,941.00 976.00,938.00 976.00,937.00 972.00,933.00 972.00,932.00 968.00,928.00 968.00,927.00 967.00,926.00 967.00,925.00 963.00,921.00 963.00,920.00 959.00,916.00 959.00,915.00 950.00,906.00 950.00,905.00 949.00,904.00 949.00,903.00 946.00,900.00 946.00,899.00 941.00,894.00 941.00,893.00 940.00,893.00 935.00,888.00 935.00,887.00 932.00,884.00 932.00,883.00 929.00,880.00 929.00,879.00 928.00,878.00 927.00,878.00 926.00,877.00 926.00,876.00 925.00,876.00 921.00,872.00 921.00,871.00 916.00,866.00 916.00,865.00 898.00,847.00 898.00,846.00 894.00,842.00 893.00,842.00 880.00,829.00 880.00,828.00 876.00,824.00 875.00,824.00 866.00,815.00 865.00,815.00 864.00,814.00 864.00,813.00 858.00,807.00 857.00,807.00 853.00,803.00 852.00,803.00 846.00,797.00 846.00,796.00 844.00,794.00 843.00,794.00 839.00,790.00 838.00,790.00 834.00,786.00 833.00,786.00 829.00,782.00 829.00,781.00 827.00,779.00 826.00,779.00 820.00,773.00 819.00,773.00 818.00,772.00 817.00,772.00 806.00,761.00 805.00,761.00 800.00,756.00 799.00,756.00 797.00,754.00 796.00,754.00 788.00,746.00 787.00,746.00 781.00,740.00 780.00,740.00 776.00,736.00 775.00,736.00 770.00,731.00 769.00,731.00 764.00,726.00 763.00,726.00 758.00,721.00 757.00,721.00 753.00,717.00 752.00,717.00 747.00,712.00 746.00,712.00 739.00,705.00 738.00,705.00 737.00,704.00 737.00,703.00 735.00,703.00 730.00,698.00 729.00,698.00 719.00,688.00 718.00,688.00 715.00,685.00 714.00,685.00 713.00,684.00 712.00,684.00 701.00,673.00 700.00,673.00 695.00,668.00 696.00,667.00 697.00,667.00 700.00,670.00 701.00,670.00 705.00,674.00 706.00,674.00 713.00,681.00 714.00,681.00 715.00,682.00 716.00,682.00 718.00,684.00 719.00,684.00 722.00,687.00 723.00,687.00 726.00,690.00 726.00,691.00 727.00,691.00 730.00,694.00 731.00,694.00 735.00,698.00 736.00,698.00 738.00,700.00 739.00,700.00 740.00,701.00 741.00,701.00 743.00,703.00 743.00,704.00 744.00,705.00 745.00,705.00 749.00,709.00 750.00,709.00 753.00,712.00 754.00,712.00 758.00,716.00 759.00,716.00 762.00,719.00 763.00,719.00 766.00,722.00 767.00,722.00 771.00,726.00 772.00,726.00 775.00,729.00 776.00,729.00 782.00,735.00 784.00,735.00 786.00,737.00 787.00,737.00 790.00,740.00 791.00,740.00 797.00,746.00 798.00,746.00 801.00,749.00 802.00,749.00 804.00,751.00 805.00,751.00 807.00,753.00 809.00,753.00 811.00,755.00 812.00,755.00 813.00,756.00 813.00,757.00 814.00,758.00 815.00,758.00 817.00,760.00 818.00,760.00 820.00,762.00 821.00,762.00 824.00,765.00 825.00,765.00 827.00,767.00 828.00,767.00 830.00,769.00 831.00,769.00 832.00,770.00 833.00,770.00 835.00,772.00 836.00,772.00 838.00,774.00 839.00,774.00 840.00,775.00 841.00,775.00 843.00,777.00 844.00,777.00 846.00,779.00 847.00,779.00 850.00,782.00 851.00,782.00 853.00,784.00 854.00,784.00 855.00,785.00 856.00,785.00 858.00,787.00 859.00,787.00 860.00,788.00 862.00,788.00 863.00,789.00 864.00,789.00 867.00,792.00 868.00,792.00 869.00,793.00 870.00,793.00 871.00,794.00 872.00,794.00 874.00,796.00 875.00,796.00 876.00,797.00 877.00,797.00 878.00,798.00 879.00,798.00 880.00,799.00 881.00,799.00 883.00,801.00 884.00,801.00 886.00,803.00 888.00,803.00 890.00,805.00 893.00,805.00 894.00,806.00 895.00,806.00 896.00,807.00 897.00,807.00 898.00,808.00 899.00,808.00 901.00,810.00 902.00,810.00 903.00,811.00 905.00,811.00 906.00,812.00 907.00,812.00 908.00,813.00 909.00,813.00 910.00,814.00 911.00,814.00 912.00,815.00 913.00,815.00 914.00,816.00 916.00,816.00 918.00,818.00 919.00,818.00 920.00,819.00 922.00,819.00 923.00,820.00 924.00,820.00 925.00,821.00 927.00,821.00 928.00,822.00 930.00,822.00 931.00,823.00 933.00,823.00 934.00,824.00 936.00,824.00 937.00,825.00 939.00,825.00 940.00,826.00 942.00,826.00 943.00,827.00 945.00,827.00 946.00,828.00 948.00,828.00 949.00,829.00 951.00,829.00 952.00,830.00 953.00,830.00 954.00,831.00 956.00,831.00 957.00,832.00 960.00,832.00 961.00,833.00 963.00,833.00 964.00,834.00 967.00,834.00 968.00,835.00 970.00,835.00 971.00,836.00 974.00,836.00 975.00,837.00 978.00,837.00 979.00,838.00 983.00,838.00 984.00,839.00 989.00,839.00 990.00,840.00 999.00,840.00 1000.00,841.00 1006.00,841.00 1007.00,842.00 1015.00,842.00 1016.00,843.00 1035.00,843.00 1036.00,844.00 1042.00,844.00 1043.00,843.00 1060.00,843.00 1061.00,842.00 1069.00,842.00 1070.00,841.00 1074.00,841.00 1075.00,840.00 1084.00,840.00 1085.00,839.00 1088.00,839.00 1089.00,838.00 1091.00,838.00 1092.00,837.00 1094.00,837.00 1095.00,836.00 1097.00,836.00 1098.00,835.00 1100.00,835.00 1101.00,834.00 1103.00,834.00 1104.00,833.00 1105.00,833.00 1106.00,832.00 1107.00,832.00 1108.00,831.00 1109.00,831.00 1110.00,830.00 1111.00,830.00 1112.00,829.00 1113.00,829.00 1114.00,828.00 1115.00,828.00 1116.00,827.00 1117.00,827.00 1119.00,825.00 1120.00,825.00 1121.00,824.00 1122.00,824.00 1124.00,822.00 1125.00,822.00 1126.00,821.00 1127.00,821.00 1129.00,819.00 1130.00,819.00 1135.00,814.00 1136.00,814.00 1141.00,809.00 1141.00,808.00 1148.00,801.00 1148.00,800.00 1151.00,797.00 1151.00,796.00 1153.00,794.00 1153.00,793.00 1155.00,791.00 1155.00,790.00 1156.00,789.00 1156.00,788.00 1158.00,786.00 1158.00,784.00 1159.00,783.00 1159.00,781.00 1160.00,780.00 1160.00,779.00 1161.00,778.00 1161.00,777.00 1162.00,776.00 1162.00,774.00 1163.00,773.00 1163.00,772.00 1164.00,771.00 1164.00,770.00 1165.00,769.00 1165.00,767.00 1166.00,766.00 1166.00,764.00 1167.00,763.00 1167.00,760.00 1168.00,759.00 1168.00,756.00 1169.00,755.00 1169.00,752.00 1170.00,751.00 1170.00,746.00 1171.00,745.00 1171.00,738.00 1172.00,737.00 1172.00,724.00 1173.00,723.00 1173.00,713.00 1172.00,712.00 1172.00,697.00 1171.00,696.00 1171.00,688.00 1170.00,687.00 1170.00,683.00 1169.00,682.00 1169.00,677.00 1168.00,676.00 1168.00,671.00 1167.00,670.00 1167.00,668.00 1166.00,667.00 1166.00,663.00 1165.00,662.00 1165.00,659.00 1164.00,658.00 1164.00,655.00 1163.00,654.00 1163.00,651.00 1162.00,650.00 1162.00,649.00 1161.00,648.00 1161.00,645.00 1160.00,644.00 1160.00,642.00 1159.00,641.00 1159.00,638.00 1158.00,637.00 1158.00,634.00 1157.00,633.00 1157.00,631.00 1156.00,630.00 1156.00,628.00 1155.00,627.00 1155.00,625.00 1154.00,624.00 1154.00,623.00 1153.00,622.00 1153.00,620.00 1152.00,619.00 1152.00,617.00 1150.00,615.00 1150.00,614.00 1149.00,613.00 1149.00,611.00 1148.00,610.00 1148.00,609.00 1147.00,608.00 1147.00,607.00 1146.00,606.00 1146.00,604.00 1145.00,603.00 1145.00,602.00 1144.00,601.00 1144.00,600.00 1143.00,599.00 1143.00,598.00 1141.00,596.00 1141.00,593.00 1140.00,592.00 1140.00,590.00 1139.00,589.00 1139.00,588.00 1137.00,586.00 1137.00,585.00 1136.00,584.00 1136.00,583.00 1134.00,581.00 1134.00,580.00 1133.00,579.00 1133.00,578.00 1132.00,577.00 1132.00,574.00 1133.00,573.00 1133.00,572.00 1134.00,571.00 1134.00,570.00 1135.00,569.00 1135.00,568.00 1136.00,567.00 1136.00,566.00 1137.00,565.00 1137.00,563.00 1138.00,562.00 1138.00,561.00 1140.00,559.00 1140.00,558.00 1141.00,557.00 1141.00,553.00 1142.00,552.00 1142.00,550.00 1143.00,549.00 1143.00,548.00 1144.00,547.00 1144.00,546.00 1145.00,545.00 1145.00,544.00 1146.00,543.00 1146.00,541.00 1147.00,540.00 1147.00,538.00 1148.00,537.00 1148.00,535.00 1149.00,534.00 1149.00,532.00 1150.00,531.00 1150.00,529.00 1151.00,528.00 1151.00,527.00 1152.00,526.00 1152.00,524.00 1153.00,523.00 1153.00,521.00 1154.00,520.00 1154.00,517.00 1155.00,516.00 1155.00,514.00 1156.00,513.00 1156.00,510.00 1157.00,509.00 1157.00,508.00 1158.00,507.00 1158.00,503.00 1159.00,502.00 1159.00,495.00 1160.00,494.00 1160.00,491.00 1161.00,490.00 1161.00,487.00 1162.00,486.00 1162.00,481.00 1163.00,480.00 1163.00,476.00 1164.00,475.00 1164.00,470.00 1165.00,469.00 1165.00,463.00 1166.00,462.00 1166.00,455.00 1167.00,454.00 1167.00,442.00 1168.00,441.00 1168.00,410.00 1167.00,409.00 1167.00,400.00 1166.00,399.00 1166.00,392.00 1165.00,391.00 1165.00,387.00 1164.00,386.00 1164.00,382.00 1163.00,381.00 1163.00,378.00 1162.00,377.00 1162.00,374.00 1161.00,373.00 1161.00,371.00 1160.00,370.00 1160.00,368.00 1159.00,367.00 1159.00,364.00 1158.00,363.00 1159.00,362.00 1158.00,361.00 1158.00,359.00 1156.00,357.00 1156.00,355.00 1155.00,354.00 1155.00,353.00 1154.00,352.00 1154.00,351.00 1153.00,350.00 1153.00,349.00 1152.00,348.00 1152.00,347.00 1151.00,346.00 1151.00,345.00 1150.00,344.00 1150.00,343.00 1148.00,341.00 1148.00,340.00 1145.00,337.00 1145.00,336.00 1142.00,333.00 1142.00,332.00 1141.00,331.00 1141.00,330.00 1140.00,329.00 1140.00,328.00 1133.00,321.00 1132.00,321.00 1129.00,318.00 1128.00,318.00 1122.00,312.00 1121.00,312.00 1119.00,310.00 1118.00,310.00 1116.00,308.00 1115.00,308.00 1114.00,307.00 1113.00,307.00 1112.00,306.00 1111.00,306.00 1110.00,305.00 1109.00,305.00 1108.00,304.00 1106.00,304.00 1105.00,303.00 1103.00,303.00 1102.00,302.00 1100.00,302.00 1099.00,301.00 1097.00,301.00 1096.00,300.00 1094.00,300.00 1093.00,299.00 1091.00,299.00 1090.00,298.00 1088.00,298.00 1087.00,297.00 1083.00,297.00 1082.00,296.00 1077.00,296.00 1076.00,295.00 1069.00,295.00 1068.00,294.00 1028.00,294.00 1027.00,295.00 1017.00,295.00 1016.00,296.00 1009.00,296.00 1008.00,297.00 1003.00,297.00 1002.00,298.00 997.00,298.00 996.00,299.00 991.00,299.00 990.00,300.00 986.00,300.00 985.00,301.00 983.00,301.00 982.00,302.00 978.00,302.00 977.00,303.00 972.00,303.00 971.00,304.00 967.00,304.00 966.00,305.00 964.00,305.00 963.00,306.00 960.00,306.00 959.00,307.00 957.00,307.00 956.00,308.00 954.00,308.00 953.00,309.00 952.00,309.00 951.00,310.00 949.00,310.00 948.00,311.00 946.00,311.00 945.00,312.00 943.00,312.00 942.00,313.00 940.00,313.00 939.00,314.00 937.00,314.00 936.00,315.00 934.00,315.00 932.00,317.00 930.00,317.00 929.00,318.00 928.00,318.00 927.00,319.00 925.00,319.00 924.00,320.00 922.00,320.00 921.00,321.00 919.00,321.00 918.00,322.00 917.00,322.00 916.00,323.00 914.00,323.00 913.00,324.00 912.00,324.00 911.00,325.00 910.00,325.00 909.00,326.00 908.00,326.00 907.00,327.00 906.00,327.00 905.00,328.00 903.00,328.00 902.00,329.00 901.00,329.00 899.00,331.00 898.00,331.00 897.00,332.00 896.00,332.00 895.00,333.00 894.00,333.00 893.00,334.00 892.00,334.00 891.00,335.00 890.00,335.00 889.00,336.00 888.00,336.00 887.00,337.00 886.00,337.00 885.00,338.00 884.00,338.00 883.00,339.00 882.00,339.00 881.00,340.00 880.00,340.00 879.00,341.00 878.00,341.00 877.00,342.00 876.00,342.00 874.00,344.00 873.00,344.00 872.00,345.00 871.00,345.00 870.00,346.00 869.00,346.00 867.00,348.00 866.00,348.00 864.00,350.00 863.00,350.00 861.00,352.00 860.00,352.00 859.00,353.00 858.00,353.00 856.00,355.00 855.00,355.00 854.00,356.00 852.00,356.00 851.00,357.00 850.00,357.00 846.00,361.00 845.00,361.00 843.00,363.00 842.00,363.00 841.00,364.00 840.00,364.00 838.00,366.00 837.00,366.00 835.00,368.00 834.00,368.00 830.00,372.00 829.00,372.00 828.00,373.00 827.00,373.00 826.00,374.00 825.00,374.00 823.00,376.00 822.00,376.00 819.00,379.00 818.00,379.00 816.00,381.00 815.00,381.00 809.00,387.00 808.00,387.00 805.00,390.00 804.00,390.00 803.00,391.00 802.00,391.00 801.00,392.00 800.00,392.00 797.00,395.00 796.00,395.00 796.00,396.00 793.00,399.00 792.00,399.00 789.00,402.00 788.00,402.00 784.00,406.00 783.00,406.00 780.00,409.00 779.00,409.00 774.00,414.00 773.00,414.00 768.00,419.00 767.00,419.00 762.00,424.00 761.00,424.00 756.00,429.00 755.00,429.00 749.00,435.00 748.00,435.00 743.00,440.00 743.00,441.00 742.00,442.00 741.00,442.00 740.00,443.00 739.00,443.00 733.00,449.00 732.00,449.00 726.00,455.00 726.00,456.00 725.00,457.00 724.00,457.00 721.00,460.00 720.00,460.00 715.00,465.00 714.00,465.00 709.00,470.00 709.00,471.00 705.00,475.00 704.00,475.00 701.00,478.00 700.00,478.00 694.00,484.00 693.00,484.00 692.00,483.00 692.00,482.00 694.00,480.00 694.00,479.00 696.00,477.00 696.00,476.00 701.00,471.00 701.00,470.00 703.00,468.00 703.00,467.00 706.00,464.00 706.00,463.00 707.00,462.00 707.00,461.00 708.00,460.00 708.00,459.00 710.00,457.00 711.00,457.00 711.00,456.00 714.00,453.00 714.00,452.00 717.00,449.00 717.00,448.00 720.00,445.00 720.00,444.00 724.00,440.00 724.00,439.00 726.00,437.00 726.00,436.00 730.00,432.00 730.00,431.00 733.00,428.00 733.00,427.00 739.00,421.00 739.00,420.00 742.00,417.00 742.00,416.00 743.00,415.00 743.00,414.00 747.00,410.00 747.00,409.00 750.00,406.00 751.00,406.00 751.00,405.00 754.00,402.00 754.00,401.00 758.00,397.00 758.00,396.00 759.00,395.00 759.00,394.00 761.00,392.00 761.00,391.00 768.00,384.00 768.00,383.00 771.00,380.00 771.00,379.00 774.00,376.00 774.00,375.00 777.00,372.00 777.00,371.00 779.00,369.00 779.00,368.00 782.00,365.00 782.00,364.00 785.00,361.00 785.00,360.00 788.00,357.00 788.00,356.00 793.00,351.00 793.00,350.00 794.00,349.00 794.00,348.00 795.00,347.00 795.00,346.00 798.00,343.00 798.00,342.00 800.00,340.00 800.00,339.00 804.00,335.00 804.00,334.00 807.00,331.00 807.00,330.00 809.00,328.00 809.00,327.00 811.00,325.00 811.00,323.00 812.00,322.00 812.00,321.00 816.00,317.00 816.00,316.00 817.00,315.00 817.00,314.00 819.00,312.00 819.00,311.00 821.00,309.00 821.00,308.00 823.00,306.00 823.00,305.00 824.00,304.00 824.00,303.00 827.00,300.00 827.00,299.00 828.00,298.00 828.00,297.00 829.00,296.00 829.00,294.00 831.00,292.00 831.00,291.00 832.00,290.00 832.00,289.00 833.00,288.00 833.00,287.00 836.00,284.00 836.00,283.00 837.00,282.00 837.00,281.00 838.00,280.00 838.00,279.00 839.00,278.00 839.00,277.00 840.00,276.00 840.00,275.00 842.00,273.00 842.00,272.00 843.00,271.00 843.00,270.00 844.00,269.00 844.00,268.00 845.00,267.00 845.00,266.00 846.00,265.00 846.00,263.00 847.00,262.00 847.00,261.00 848.00,260.00 848.00,258.00 849.00,257.00 849.00,256.00 850.00,255.00 850.00,254.00 851.00,253.00 851.00,252.00 853.00,250.00 853.00,248.00 854.00,247.00 854.00,246.00 855.00,245.00 855.00,244.00 856.00,243.00 856.00,241.00 857.00,240.00 857.00,239.00 858.00,238.00 858.00,236.00 859.00,235.00 859.00,234.00 860.00,233.00 860.00,232.00 861.00,231.00 861.00,229.00 862.00,228.00 862.00,226.00 863.00,225.00 863.00,223.00 864.00,222.00 864.00,218.00 865.00,217.00 865.00,215.00 866.00,214.00 866.00,212.00 867.00,211.00 867.00,209.00 868.00,208.00 868.00,205.00 869.00,204.00 869.00,202.00 870.00,201.00 870.00,199.00 871.00,198.00 871.00,194.00 872.00,193.00 872.00,190.00 873.00,189.00 873.00,185.00 874.00,184.00 874.00,180.00 875.00,179.00 875.00,174.00 876.00,173.00 876.00,165.00 877.00,164.00 877.00,154.00 878.00,153.00 878.00,127.00 877.00,126.00 877.00,115.00 876.00,114.00 876.00,109.00 875.00,108.00 875.00,102.00 874.00,101.00 874.00,97.00 873.00,96.00 873.00,93.00 872.00,92.00 872.00,89.00 871.00,88.00 871.00,85.00 870.00,84.00 870.00,81.00 869.00,80.00 869.00,78.00 868.00,77.00 868.00,75.00 867.00,74.00 867.00,72.00 866.00,71.00 866.00,70.00 865.00,69.00 865.00,67.00 864.00,66.00 864.00,64.00 863.00,63.00 863.00,62.00 862.00,61.00 862.00,60.00 860.00,58.00 860.00,57.00 859.00,56.00 859.00,55.00 857.00,53.00 857.00,52.00 854.00,49.00 854.00,48.00 845.00,39.00 845.00,38.00 844.00,37.00 843.00,37.00 838.00,32.00 837.00,32.00 834.00,29.00 833.00,29.00 830.00,26.00 829.00,26.00 828.00,25.00 827.00,25.00 826.00,24.00 825.00,24.00 824.00,23.00 823.00,23.00 821.00,21.00 820.00,21.00 819.00,20.00 818.00,20.00 817.00,19.00 816.00,19.00 815.00,18.00 814.00,18.00 813.00,17.00 812.00,17.00 811.00,16.00 810.00,16.00 809.00,15.00 808.00,15.00 807.00,14.00 805.00,14.00 804.00,13.00 802.00,13.00 801.00,12.00 799.00,12.00 798.00,11.00 796.00,11.00 795.00,10.00 793.00,10.00 792.00,9.00 789.00,9.00 788.00,8.00 781.00,8.00 780.00,7.00 777.00,7.00 776.00,6.00 770.00,6.00 769.00,5.00 760.00,5.00 759.00,4.00 732.00,4.00 731.00,5.00 722.00,5.00 721.00,6.00 715.00,6.00 714.00,7.00 709.00,7.00 708.00,8.00 702.00,8.00 701.00,9.00 699.00,9.00 698.00,10.00 696.00,10.00 695.00,11.00 692.00,11.00 691.00,12.00 690.00,12.00 689.00,13.00 687.00,13.00 686.00,14.00 685.00,14.00 684.00,15.00 682.00,15.00 681.00,16.00 680.00,16.00 679.00,17.00 677.00,17.00 676.00,18.00 675.00,18.00 673.00,20.00 672.00,20.00 671.00,21.00 669.00,21.00 668.00,22.00 667.00,22.00 666.00,23.00 665.00,23.00 664.00,24.00 663.00,24.00 662.00,25.00 661.00,25.00 660.00,26.00 657.00,26.00 656.00,27.00 655.00,27.00 654.00,28.00 653.00,28.00 652.00,29.00 651.00,29.00 650.00,30.00 649.00,30.00 648.00,31.00 646.00,31.00 645.00,32.00 644.00,32.00 643.00,33.00 642.00,33.00 641.00,34.00 640.00,34.00 639.00,35.00 638.00,35.00 637.00,36.00 636.00,36.00 635.00,37.00 633.00,37.00 632.00,38.00 630.00,38.00 629.00,39.00 627.00,39.00 626.00,40.00 624.00,40.00 623.00,41.00 622.00,41.00 621.00,42.00 618.00,42.00 617.00,43.00 606.00,43.00 605.00,44.00 598.00,44.00 597.00,43.00 586.00,43.00 585.00,42.00 581.00,42.00 580.00,41.00 577.00,41.00 576.00,40.00 574.00,40.00 573.00,39.00 571.00,39.00 570.00,38.00 568.00,38.00 567.00,37.00 565.00,37.00 564.00,36.00 562.00,36.00 561.00,35.00 559.00,35.00 558.00,34.00 557.00,34.00 556.00,33.00 554.00,33.00 553.00,32.00 551.00,32.00 550.00,31.00 549.00,31.00 548.00,30.00 547.00,30.00 546.00,29.00 544.00,29.00 543.00,28.00 541.00,28.00 540.00,27.00 539.00,27.00 538.00,26.00 536.00,26.00 535.00,25.00 532.00,25.00 531.00,24.00 529.00,24.00 528.00,23.00 527.00,23.00 526.00,22.00 524.00,22.00 523.00,21.00 521.00,21.00 520.00,20.00 519.00,20.00 518.00,19.00 516.00,19.00 515.00,18.00 514.00,18.00 513.00,17.00 511.00,17.00 510.00,16.00 509.00,16.00 508.00,15.00 506.00,15.00 505.00,14.00 503.00,14.00 502.00,13.00 500.00,13.00 499.00,12.00 497.00,12.00 496.00,11.00 495.00,11.00 494.00,10.00 492.00,10.00 491.00,9.00 488.00,9.00 487.00,8.00 483.00,8.00 482.00,7.00 479.00,7.00 478.00,6.00 475.00,6.00 474.00,5.00 471.00,5.00 470.00,4.00 466.00,4.00 465.00,3.00 462.00,3.00 461.00,2.00 456.00,2.00 455.00,1.00 449.00,1.00 448.00,0.00 Z" fill="#00974b" /></svg>